<svg xmlns="http://www.w3.org/2000/svg" xmlns:xlink="http://www.w3.org/1999/xlink" version="1.1" class="marks" width="509" height="394" viewBox="0 0 509 394"><rect width="509" height="394" fill="#c7c5b5"/><g fill="none" stroke-miterlimit="10" transform="translate(63,45)"><g class="mark-group role-frame root" role="graphics-object" aria-roledescription="group mark container"><g transform="translate(0,0)"><path class="background" aria-hidden="true" d="M0,0h400v300h-400Z" fill="#bf9b71" fill-opacity="0.5" stroke="#ddd" stroke-width="0"/><g><g class="mark-group role-axis" aria-hidden="true"><g transform="translate(0.5,300.5)"><path class="background" aria-hidden="true" d="M0,0h0v0h0Z" pointer-events="none"/><g><g class="mark-rule role-axis-grid" pointer-events="none"><line transform="translate(0,-300)" x2="0" y2="300" stroke="#ad7a3d" stroke-width="1" opacity="1"/><line transform="translate(40,-300)" x2="0" y2="300" stroke="#ad7a3d" stroke-width="1" opacity="1"/><line transform="translate(80,-300)" x2="0" y2="300" stroke="#ad7a3d" stroke-width="1" opacity="1"/><line transform="translate(120,-300)" x2="0" y2="300" stroke="#ad7a3d" stroke-width="1" opacity="1"/><line transform="translate(160,-300)" x2="0" y2="300" stroke="#ad7a3d" stroke-width="1" opacity="1"/><line transform="translate(200,-300)" x2="0" y2="300" stroke="#ad7a3d" stroke-width="1" opacity="1"/><line transform="translate(240,-300)" x2="0" y2="300" stroke="#ad7a3d" stroke-width="1" opacity="1"/><line transform="translate(280,-300)" x2="0" y2="300" stroke="#ad7a3d" stroke-width="1" opacity="1"/><line transform="translate(320,-300)" x2="0" y2="300" stroke="#ad7a3d" stroke-width="1" opacity="1"/><line transform="translate(360,-300)" x2="0" y2="300" stroke="#ad7a3d" stroke-width="1" opacity="1"/><line transform="translate(400,-300)" x2="0" y2="300" stroke="#ad7a3d" stroke-width="1" opacity="1"/></g></g><path class="foreground" aria-hidden="true" d="" pointer-events="none" display="none"/></g></g><g class="mark-group role-axis" role="graphics-symbol" aria-roledescription="axis" aria-label="X-axis titled 'Card Elixer' for a linear scale with values from 0 to 10"><g transform="translate(0.5,300.5)"><path class="background" aria-hidden="true" d="M0,0h0v0h0Z" pointer-events="none"/><g><g class="mark-rule role-axis-tick" pointer-events="none"><line transform="translate(0,0)" x2="0" y2="5" stroke="#ad7a3d" stroke-width="1" opacity="1"/><line transform="translate(40,0)" x2="0" y2="5" stroke="#ad7a3d" stroke-width="1" opacity="1"/><line transform="translate(80,0)" x2="0" y2="5" stroke="#ad7a3d" stroke-width="1" opacity="1"/><line transform="translate(120,0)" x2="0" y2="5" stroke="#ad7a3d" stroke-width="1" opacity="1"/><line transform="translate(160,0)" x2="0" y2="5" stroke="#ad7a3d" stroke-width="1" opacity="1"/><line transform="translate(200,0)" x2="0" y2="5" stroke="#ad7a3d" stroke-width="1" opacity="1"/><line transform="translate(240,0)" x2="0" y2="5" stroke="#ad7a3d" stroke-width="1" opacity="1"/><line transform="translate(280,0)" x2="0" y2="5" stroke="#ad7a3d" stroke-width="1" opacity="1"/><line transform="translate(320,0)" x2="0" y2="5" stroke="#ad7a3d" stroke-width="1" opacity="1"/><line transform="translate(360,0)" x2="0" y2="5" stroke="#ad7a3d" stroke-width="1" opacity="1"/><line transform="translate(400,0)" x2="0" y2="5" stroke="#ad7a3d" stroke-width="1" opacity="1"/></g><g class="mark-text role-axis-label" pointer-events="none"><text text-anchor="start" transform="translate(0,17)" font-family="DINCondensed-Bold" font-size="13px" fill="#ad7a3d" opacity="1">0</text><text text-anchor="middle" transform="translate(40,17)" font-family="DINCondensed-Bold" font-size="13px" fill="#ad7a3d" opacity="1">1</text><text text-anchor="middle" transform="translate(80,17)" font-family="DINCondensed-Bold" font-size="13px" fill="#ad7a3d" opacity="1">2</text><text text-anchor="middle" transform="translate(120,17)" font-family="DINCondensed-Bold" font-size="13px" fill="#ad7a3d" opacity="1">3</text><text text-anchor="middle" transform="translate(160,17)" font-family="DINCondensed-Bold" font-size="13px" fill="#ad7a3d" opacity="1">4</text><text text-anchor="middle" transform="translate(200,17)" font-family="DINCondensed-Bold" font-size="13px" fill="#ad7a3d" opacity="1">5</text><text text-anchor="middle" transform="translate(240,17)" font-family="DINCondensed-Bold" font-size="13px" fill="#ad7a3d" opacity="1">6</text><text text-anchor="middle" transform="translate(280,17)" font-family="DINCondensed-Bold" font-size="13px" fill="#ad7a3d" opacity="1">7</text><text text-anchor="middle" transform="translate(320,17)" font-family="DINCondensed-Bold" font-size="13px" fill="#ad7a3d" opacity="1">8</text><text text-anchor="middle" transform="translate(360,17)" font-family="DINCondensed-Bold" font-size="13px" fill="#ad7a3d" opacity="1">9</text><text text-anchor="end" transform="translate(400,17)" font-family="DINCondensed-Bold" font-size="13px" fill="#ad7a3d" opacity="1">10</text></g><g class="mark-rule role-axis-domain" pointer-events="none"><line transform="translate(0,0)" x2="400" y2="0" stroke="#ad7a3d" stroke-width="1" opacity="1"/></g><g class="mark-text role-axis-title" pointer-events="none"><text text-anchor="middle" transform="translate(200,40)" font-family="DINCondensed-Bold" font-size="20px" font-weight="bold" fill="#915f24" opacity="1">Card Elixer</text></g></g><path class="foreground" aria-hidden="true" d="" pointer-events="none" display="none"/></g></g><g class="mark-group role-axis" role="graphics-symbol" aria-roledescription="axis" aria-label="Y-axis titled 'Number of Uses' for a linear scale with values from 0 to 90,000"><g transform="translate(0.5,0.5)"><path class="background" aria-hidden="true" d="M0,0h0v0h0Z" pointer-events="none"/><g><g class="mark-rule role-axis-tick" pointer-events="none"><line transform="translate(0,300)" x2="-5" y2="0" stroke="#ad7a3d" stroke-width="1" opacity="1"/><line transform="translate(0,267)" x2="-5" y2="0" stroke="#ad7a3d" stroke-width="1" opacity="1"/><line transform="translate(0,233)" x2="-5" y2="0" stroke="#ad7a3d" stroke-width="1" opacity="1"/><line transform="translate(0,200)" x2="-5" y2="0" stroke="#ad7a3d" stroke-width="1" opacity="1"/><line transform="translate(0,167)" x2="-5" y2="0" stroke="#ad7a3d" stroke-width="1" opacity="1"/><line transform="translate(0,133)" x2="-5" y2="0" stroke="#ad7a3d" stroke-width="1" opacity="1"/><line transform="translate(0,100)" x2="-5" y2="0" stroke="#ad7a3d" stroke-width="1" opacity="1"/><line transform="translate(0,67)" x2="-5" y2="0" stroke="#ad7a3d" stroke-width="1" opacity="1"/><line transform="translate(0,33)" x2="-5" y2="0" stroke="#ad7a3d" stroke-width="1" opacity="1"/><line transform="translate(0,0)" x2="-5" y2="0" stroke="#ad7a3d" stroke-width="1" opacity="1"/></g><g class="mark-text role-axis-label" pointer-events="none"><text text-anchor="end" transform="translate(-7,304)" font-family="DINCondensed-Bold" font-size="13px" fill="#3B9686" opacity="1">0</text><text text-anchor="end" transform="translate(-7,270.66666666666663)" font-family="DINCondensed-Bold" font-size="13px" fill="#3B9686" opacity="1">10,000</text><text text-anchor="end" transform="translate(-7,237.33333333333334)" font-family="DINCondensed-Bold" font-size="13px" fill="#3B9686" opacity="1">20,000</text><text text-anchor="end" transform="translate(-7,204.00000000000003)" font-family="DINCondensed-Bold" font-size="13px" fill="#3B9686" opacity="1">30,000</text><text text-anchor="end" transform="translate(-7,170.66666666666669)" font-family="DINCondensed-Bold" font-size="13px" fill="#3B9686" opacity="1">40,000</text><text text-anchor="end" transform="translate(-7,137.33333333333331)" font-family="DINCondensed-Bold" font-size="13px" fill="#3B9686" opacity="1">50,000</text><text text-anchor="end" transform="translate(-7,104.00000000000001)" font-family="DINCondensed-Bold" font-size="13px" fill="#3B9686" opacity="1">60,000</text><text text-anchor="end" transform="translate(-7,70.66666666666666)" font-family="DINCondensed-Bold" font-size="13px" fill="#3B9686" opacity="1">70,000</text><text text-anchor="end" transform="translate(-7,37.33333333333335)" font-family="DINCondensed-Bold" font-size="13px" fill="#3B9686" opacity="1">80,000</text><text text-anchor="end" transform="translate(-7,4)" font-family="DINCondensed-Bold" font-size="13px" fill="#3B9686" opacity="1">90,000</text></g><g class="mark-rule role-axis-domain" pointer-events="none"><line transform="translate(0,300)" x2="0" y2="-300" stroke="#ad7a3d" stroke-width="1" opacity="1"/></g><g class="mark-text role-axis-title" pointer-events="none"><text text-anchor="middle" transform="translate(-37.597991943359375,150) rotate(-90) translate(0,-4)" font-family="DINCondensed-Bold" font-size="20px" font-weight="bold" fill="#3B9686" opacity="1">Number of Uses</text></g></g><path class="foreground" aria-hidden="true" d="" pointer-events="none" display="none"/></g></g><g class="mark-group role-axis" role="graphics-symbol" aria-roledescription="axis" aria-label="Y-axis titled 'win %' for a linear scale with values from 0 to 65"><g transform="translate(400.5,0.5)"><path class="background" aria-hidden="true" d="M0,0h0v0h0Z" pointer-events="none"/><g><g class="mark-rule role-axis-tick" pointer-events="none"><line transform="translate(0,300)" x2="5" y2="0" stroke="#ad7a3d" stroke-width="1" opacity="1"/><line transform="translate(0,254)" x2="5" y2="0" stroke="#ad7a3d" stroke-width="1" opacity="1"/><line transform="translate(0,208)" x2="5" y2="0" stroke="#ad7a3d" stroke-width="1" opacity="1"/><line transform="translate(0,162)" x2="5" y2="0" stroke="#ad7a3d" stroke-width="1" opacity="1"/><line transform="translate(0,115)" x2="5" y2="0" stroke="#ad7a3d" stroke-width="1" opacity="1"/><line transform="translate(0,69)" x2="5" y2="0" stroke="#ad7a3d" stroke-width="1" opacity="1"/><line transform="translate(0,23)" x2="5" y2="0" stroke="#ad7a3d" stroke-width="1" opacity="1"/></g><g class="mark-text role-axis-label" pointer-events="none"><text text-anchor="start" transform="translate(7,304)" font-family="DINCondensed-Bold" font-size="13px" fill="#4F736D" opacity="1">0</text><text text-anchor="start" transform="translate(7,257.8461538461538)" font-family="DINCondensed-Bold" font-size="13px" fill="#4F736D" opacity="1">10</text><text text-anchor="start" transform="translate(7,211.69230769230768)" font-family="DINCondensed-Bold" font-size="13px" fill="#4F736D" opacity="1">20</text><text text-anchor="start" transform="translate(7,165.53846153846152)" font-family="DINCondensed-Bold" font-size="13px" fill="#4F736D" opacity="1">30</text><text text-anchor="start" transform="translate(7,119.38461538461537)" font-family="DINCondensed-Bold" font-size="13px" fill="#4F736D" opacity="1">40</text><text text-anchor="start" transform="translate(7,73.23076923076921)" font-family="DINCondensed-Bold" font-size="13px" fill="#4F736D" opacity="1">50</text><text text-anchor="start" transform="translate(7,27.076923076923062)" font-family="DINCondensed-Bold" font-size="13px" fill="#4F736D" opacity="1">60</text></g><g class="mark-rule role-axis-domain" pointer-events="none"><line transform="translate(0,300)" x2="0" y2="-300" stroke="#ad7a3d" stroke-width="1" opacity="1"/></g><g class="mark-text role-axis-title" pointer-events="none"><text text-anchor="middle" transform="translate(20.6719970703125,150) rotate(90) translate(0,-4)" font-family="DINCondensed-Bold" font-size="20px" font-weight="bold" fill="#4F736D" opacity="1">win %</text></g></g><path class="foreground" aria-hidden="true" d="" pointer-events="none" display="none"/></g></g><g class="mark-rect role-mark layer_0_marks" role="graphics-object" aria-roledescription="rect mark container"><path aria-label="Card Elixer: 2; Number of Uses: 88856.1111111" role="graphics-symbol" aria-roledescription="bar" d="M73,3.8129629629629624L87,3.8129629629629624C91.415320195952,3.8129629629629624,95,7.397642767010963,95,11.812962962962963L95,292C95,296.415320195952,91.415320195952,300,87,300L73,300C68.584679804048,300,65,296.415320195952,65,292L65,11.812962962962963C65,7.397642767010963,68.584679804048,3.8129629629629624,73,3.8129629629629624Z" fill="#3B9686" opacity="0.7"/><path aria-label="Card Elixer: 3; Number of Uses: 56726.25" role="graphics-symbol" aria-roledescription="bar" d="M113,110.9125L127,110.9125C131.415320195952,110.9125,135,114.49717980404799,135,118.9125L135,292C135,296.415320195952,131.415320195952,300,127,300L113,300C108.584679804048,300,105,296.415320195952,105,292L105,118.9125C105,114.49717980404799,108.584679804048,110.9125,113,110.9125Z" fill="#3B9686" opacity="0.7"/><path aria-label="Card Elixer: 5; Number of Uses: 38236.3888889" role="graphics-symbol" aria-roledescription="bar" d="M193,172.5453703703704L207,172.5453703703704C211.415320195952,172.5453703703704,215,176.1300501744184,215,180.5453703703704L215,292C215,296.415320195952,211.415320195952,300,207,300L193,300C188.584679804048,300,185,296.415320195952,185,292L185,180.5453703703704C185,176.1300501744184,188.584679804048,172.5453703703704,193,172.5453703703704Z" fill="#3B9686" opacity="0.7"/><path aria-label="Card Elixer: 7; Number of Uses: 50361.6" role="graphics-symbol" aria-roledescription="bar" d="M273,132.128L287,132.128C291.415320195952,132.128,295,135.71267980404798,295,140.128L295,292C295,296.415320195952,291.415320195952,300,287,300L273,300C268.584679804048,300,265,296.415320195952,265,292L265,140.128C265,135.71267980404798,268.584679804048,132.128,273,132.128Z" fill="#3B9686" opacity="0.7"/><path aria-label="Card Elixer: 4; Number of Uses: 59102.65625" role="graphics-symbol" aria-roledescription="bar" d="M153,102.99114583333339L167,102.99114583333339C171.415320195952,102.99114583333339,175,106.57582563738139,175,110.99114583333339L175,292C175,296.415320195952,171.415320195952,300,167,300L153,300C148.584679804048,300,145,296.415320195952,145,292L145,110.99114583333339C145,106.57582563738139,148.584679804048,102.99114583333339,153,102.99114583333339Z" fill="#3B9686" opacity="0.7"/><path aria-label="Card Elixer: 8; Number of Uses: 35211" role="graphics-symbol" aria-roledescription="bar" d="M313,182.63L327,182.63C331.415320195952,182.63,335,186.214679804048,335,190.63L335,292C335,296.415320195952,331.415320195952,300,327,300L313,300C308.584679804048,300,305,296.415320195952,305,292L305,190.63C305,186.214679804048,308.584679804048,182.63,313,182.63Z" fill="#3B9686" opacity="0.7"/><path aria-label="Card Elixer: 1; Number of Uses: 57547" role="graphics-symbol" aria-roledescription="bar" d="M33,108.17666666666665L47,108.17666666666665C51.415320195952,108.17666666666665,55,111.76134647071464,55,116.17666666666665L55,292C55,296.415320195952,51.415320195952,300,47,300L33,300C28.584679804048,300,25,296.415320195952,25,292L25,116.17666666666665C25,111.76134647071464,28.584679804048,108.17666666666665,33,108.17666666666665Z" fill="#3B9686" opacity="0.7"/><path aria-label="Card Elixer: 6; Number of Uses: 35055.3333333" role="graphics-symbol" aria-roledescription="bar" d="M233,183.1488888888889L247,183.1488888888889C251.415320195952,183.1488888888889,255,186.7335686929369,255,191.1488888888889L255,292C255,296.415320195952,251.415320195952,300,247,300L233,300C228.584679804048,300,225,296.415320195952,225,292L225,191.1488888888889C225,186.7335686929369,228.584679804048,183.1488888888889,233,183.1488888888889Z" fill="#3B9686" opacity="0.7"/><path aria-label="Card Elixer: 9; Number of Uses: 6244" role="graphics-symbol" aria-roledescription="bar" d="M353,279.18666666666667L367,279.18666666666667C371.415320195952,279.18666666666667,375,282.77134647071466,375,287.18666666666667L375,292C375,296.415320195952,371.415320195952,300,367,300L353,300C348.584679804048,300,345,296.415320195952,345,292L345,287.18666666666667C345,282.77134647071466,348.584679804048,279.18666666666667,353,279.18666666666667Z" fill="#3B9686" opacity="0.7"/></g><g class="mark-rect role-mark layer_1_marks" role="graphics-object" aria-roledescription="rect mark container"><path aria-label="Card Elixer: 2; win %: 54.8888888889" role="graphics-symbol" aria-roledescription="bar" d="M80,46.666666666666664L80,46.666666666666664C81.379787561235,46.666666666666664,82.5,47.786879105431666,82.5,49.166666666666664L82.5,297.5C82.5,298.879787561235,81.379787561235,300,80,300L80,300C78.620212438765,300,77.5,298.879787561235,77.5,297.5L77.5,49.166666666666664C77.5,47.786879105431666,78.620212438765,46.666666666666664,80,46.666666666666664Z" fill="#4F736D"/><path aria-label="Card Elixer: 3; win %: 56.7916666667" role="graphics-symbol" aria-roledescription="bar" d="M120,37.88461538461539L120,37.88461538461539C121.379787561235,37.88461538461539,122.5,39.00482782338039,122.5,40.38461538461539L122.5,297.5C122.5,298.879787561235,121.379787561235,300,120,300L120,300C118.620212438765,300,117.5,298.879787561235,117.5,297.5L117.5,40.38461538461539C117.5,39.00482782338039,118.620212438765,37.88461538461539,120,37.88461538461539Z" fill="#4F736D"/><path aria-label="Card Elixer: 5; win %: 59.1111111111" role="graphics-symbol" aria-roledescription="bar" d="M200,27.179487179487115L200,27.179487179487115C201.379787561235,27.179487179487115,202.5,28.299699618252117,202.5,29.679487179487115L202.5,297.5C202.5,298.879787561235,201.379787561235,300,200,300L200,300C198.620212438765,300,197.5,298.879787561235,197.5,297.5L197.5,29.679487179487115C197.5,28.299699618252117,198.620212438765,27.179487179487115,200,27.179487179487115Z" fill="#4F736D"/><path aria-label="Card Elixer: 7; win %: 57.6" role="graphics-symbol" aria-roledescription="bar" d="M280,34.153846153846146L280,34.153846153846146C281.379787561235,34.153846153846146,282.5,35.27405859261115,282.5,36.653846153846146L282.5,297.5C282.5,298.879787561235,281.379787561235,300,280,300L280,300C278.620212438765,300,277.5,298.879787561235,277.5,297.5L277.5,36.653846153846146C277.5,35.27405859261115,278.620212438765,34.153846153846146,280,34.153846153846146Z" fill="#4F736D"/><path aria-label="Card Elixer: 4; win %: 49.96875" role="graphics-symbol" aria-roledescription="bar" d="M160,69.37500000000001L160,69.37500000000001C161.379787561235,69.37500000000001,162.5,70.49521243876501,162.5,71.87500000000001L162.5,297.5C162.5,298.879787561235,161.379787561235,300,160,300L160,300C158.620212438765,300,157.5,298.879787561235,157.5,297.5L157.5,71.87500000000001C157.5,70.49521243876501,158.620212438765,69.37500000000001,160,69.37500000000001Z" fill="#4F736D"/><path aria-label="Card Elixer: 8; win %: 53" role="graphics-symbol" aria-roledescription="bar" d="M320,55.38461538461539L320,55.38461538461539C321.379787561235,55.38461538461539,322.5,56.50482782338039,322.5,57.88461538461539L322.5,297.5C322.5,298.879787561235,321.379787561235,300,320,300L320,300C318.620212438765,300,317.5,298.879787561235,317.5,297.5L317.5,57.88461538461539C317.5,56.50482782338039,318.620212438765,55.38461538461539,320,55.38461538461539Z" fill="#4F736D"/><path aria-label="Card Elixer: 1; win %: 58.2" role="graphics-symbol" aria-roledescription="bar" d="M40,31.384615384615365L40,31.384615384615365C41.379787561235,31.384615384615365,42.5,32.50482782338037,42.5,33.884615384615365L42.5,297.5C42.5,298.879787561235,41.379787561235,300,40,300L40,300C38.620212438765,300,37.5,298.879787561235,37.5,297.5L37.5,33.884615384615365C37.5,32.50482782338037,38.620212438765,31.384615384615365,40,31.384615384615365Z" fill="#4F736D"/><path aria-label="Card Elixer: 6; win %: 42.6666666667" role="graphics-symbol" aria-roledescription="bar" d="M240,103.07692307692308L240,103.07692307692308C241.379787561235,103.07692307692308,242.5,104.19713551568807,242.5,105.57692307692308L242.5,297.5C242.5,298.879787561235,241.379787561235,300,240,300L240,300C238.620212438765,300,237.5,298.879787561235,237.5,297.5L237.5,105.57692307692308C237.5,104.19713551568807,238.620212438765,103.07692307692308,240,103.07692307692308Z" fill="#4F736D"/><path aria-label="Card Elixer: 9; win %: 61" role="graphics-symbol" aria-roledescription="bar" d="M360,18.461538461538463L360,18.461538461538463C361.379787561235,18.461538461538463,362.5,19.581750900303465,362.5,20.961538461538463L362.5,297.5C362.5,298.879787561235,361.379787561235,300,360,300L360,300C358.620212438765,300,357.5,298.879787561235,357.5,297.5L357.5,20.961538461538463C357.5,19.581750900303465,358.620212438765,18.461538461538463,360,18.461538461538463Z" fill="#4F736D"/></g><g class="mark-group role-title"><g transform="translate(200,-40)"><path class="background" aria-hidden="true" d="M0,0h0v0h0Z" pointer-events="none"/><g><g class="mark-text role-title-text" role="graphics-symbol" aria-roledescription="title" aria-label="Title text 'uses and win%, as a function of card elixer'" pointer-events="none"><text text-anchor="middle" transform="translate(0,24)" font-family="DINCondensed-Bold" font-size="30px" font-weight="bold" fill="#4F736D" opacity="1">uses and win%, as a function of card elixer</text></g></g><path class="foreground" aria-hidden="true" d="" pointer-events="none" display="none"/></g></g></g><path class="foreground" aria-hidden="true" d="" display="none"/></g></g></g></svg>